<svg width="745" height="56" viewBox="0 0 745 56" fill="none" xmlns="http://www.w3.org/2000/svg">
      <mask id="path-1-outside-1_262_23148" maskUnits="userSpaceOnUse" x="0" y="0" width="745" height="56" fill="black">
      <rect fill="white" width="745" height="56"/>
      <path fill-rule="evenodd" clip-rule="evenodd" d="M38.9271 4H22.9332L20.2469 21.2222H18.5242V20L7.27966 24.4444L4 28L7.27966 31.5556L18.5242 36V34.7778H20.2469L22.9332 52H38.9271L41.0133 44.6154H25.2512L23.6693 35.7583C23.8174 36.0278 23.9016 36.3374 23.9016 36.6667C23.9016 38.8145 25.6428 40.5556 27.7906 40.5556H60.7866L44.7146 44.6154L42.9728 52L65.1808 41.3333L64.9903 40.5556H680.01L679.819 41.3333L702.027 52L700.285 44.6154L684.213 40.5556H717.427C718.893 40.5556 720.17 39.7441 720.833 38.5458L719.749 44.6154H703.987L706.073 52H722.067L724.753 34.7778H726.476V36L737.72 31.5556L741 28L737.72 24.4444L726.476 20.4394V21.2222H724.753L722.067 4H706.073L703.987 11.1111H719.749L720.862 17.5079C720.208 16.2802 718.915 15.4444 717.427 15.4444H684.01L700.285 11.1111L702.027 4L679.819 14.6667L680.01 15.4444H64.9903L65.1808 14.6667L42.9728 4L44.7146 11.1111L60.9896 15.4444H27.7905C25.6427 15.4444 23.9016 17.1856 23.9016 19.3333C23.9016 19.6701 23.8135 19.9863 23.659 20.2601L25.2512 11.1111H41.0133L38.9271 4ZM726.476 23.2222H723.205C721.057 23.2222 719.316 21.4811 719.316 19.3333C719.316 18.2901 718.47 17.4444 717.427 17.4444H27.7905C26.7473 17.4444 25.9016 18.2901 25.9016 19.3333C25.9016 21.4811 24.1605 23.2222 22.0127 23.2222H18.5242V32.7778H22.0127C24.1605 32.7778 25.9016 34.5189 25.9016 36.6667C25.9016 37.7098 26.7473 38.5556 27.7906 38.5556H717.427C718.47 38.5556 719.316 37.7099 719.316 36.6667C719.316 34.5189 721.057 32.7778 723.205 32.7778H726.476V23.2222Z"/>
      </mask>
      <path fill-rule="evenodd" clip-rule="evenodd" d="M38.9271 4H22.9332L20.2469 21.2222H18.5242V20L7.27966 24.4444L4 28L7.27966 31.5556L18.5242 36V34.7778H20.2469L22.9332 52H38.9271L41.0133 44.6154H25.2512L23.6693 35.7583C23.8174 36.0278 23.9016 36.3374 23.9016 36.6667C23.9016 38.8145 25.6428 40.5556 27.7906 40.5556H60.7866L44.7146 44.6154L42.9728 52L65.1808 41.3333L64.9903 40.5556H680.01L679.819 41.3333L702.027 52L700.285 44.6154L684.213 40.5556H717.427C718.893 40.5556 720.17 39.7441 720.833 38.5458L719.749 44.6154H703.987L706.073 52H722.067L724.753 34.7778H726.476V36L737.72 31.5556L741 28L737.72 24.4444L726.476 20.4394V21.2222H724.753L722.067 4H706.073L703.987 11.1111H719.749L720.862 17.5079C720.208 16.2802 718.915 15.4444 717.427 15.4444H684.01L700.285 11.1111L702.027 4L679.819 14.6667L680.01 15.4444H64.9903L65.1808 14.6667L42.9728 4L44.7146 11.1111L60.9896 15.4444H27.7905C25.6427 15.4444 23.9016 17.1856 23.9016 19.3333C23.9016 19.6701 23.8135 19.9863 23.659 20.2601L25.2512 11.1111H41.0133L38.9271 4ZM726.476 23.2222H723.205C721.057 23.2222 719.316 21.4811 719.316 19.3333C719.316 18.2901 718.47 17.4444 717.427 17.4444H27.7905C26.7473 17.4444 25.9016 18.2901 25.9016 19.3333C25.9016 21.4811 24.1605 23.2222 22.0127 23.2222H18.5242V32.7778H22.0127C24.1605 32.7778 25.9016 34.5189 25.9016 36.6667C25.9016 37.7098 26.7473 38.5556 27.7906 38.5556H717.427C718.47 38.5556 719.316 37.7099 719.316 36.6667C719.316 34.5189 721.057 32.7778 723.205 32.7778H726.476V23.2222Z" fill="black"/>
      <path fill-rule="evenodd" clip-rule="evenodd" d="M38.9271 4H22.9332L20.2469 21.2222H18.5242V20L7.27966 24.4444L4 28L7.27966 31.5556L18.5242 36V34.7778H20.2469L22.9332 52H38.9271L41.0133 44.6154H25.2512L23.6693 35.7583C23.8174 36.0278 23.9016 36.3374 23.9016 36.6667C23.9016 38.8145 25.6428 40.5556 27.7906 40.5556H60.7866L44.7146 44.6154L42.9728 52L65.1808 41.3333L64.9903 40.5556H680.01L679.819 41.3333L702.027 52L700.285 44.6154L684.213 40.5556H717.427C718.893 40.5556 720.17 39.7441 720.833 38.5458L719.749 44.6154H703.987L706.073 52H722.067L724.753 34.7778H726.476V36L737.72 31.5556L741 28L737.72 24.4444L726.476 20.4394V21.2222H724.753L722.067 4H706.073L703.987 11.1111H719.749L720.862 17.5079C720.208 16.2802 718.915 15.4444 717.427 15.4444H684.01L700.285 11.1111L702.027 4L679.819 14.6667L680.01 15.4444H64.9903L65.1808 14.6667L42.9728 4L44.7146 11.1111L60.9896 15.4444H27.7905C25.6427 15.4444 23.9016 17.1856 23.9016 19.3333C23.9016 19.6701 23.8135 19.9863 23.659 20.2601L25.2512 11.1111H41.0133L38.9271 4ZM726.476 23.2222H723.205C721.057 23.2222 719.316 21.4811 719.316 19.3333C719.316 18.2901 718.47 17.4444 717.427 17.4444H27.7905C26.7473 17.4444 25.9016 18.2901 25.9016 19.3333C25.9016 21.4811 24.1605 23.2222 22.0127 23.2222H18.5242V32.7778H22.0127C24.1605 32.7778 25.9016 34.5189 25.9016 36.6667C25.9016 37.7098 26.7473 38.5556 27.7906 38.5556H717.427C718.47 38.5556 719.316 37.7099 719.316 36.6667C719.316 34.5189 721.057 32.7778 723.205 32.7778H726.476V23.2222Z" fill="url(#paint0_linear_262_23148)"/>
      <path d="M22.9332 4V0C20.9621 0 19.2848 1.43596 18.981 3.38354L22.9332 4ZM38.9271 4L42.7654 2.87399C42.2656 1.17033 40.7026 0 38.9271 0V4ZM20.2469 21.2222V25.2222C22.2181 25.2222 23.8954 23.7863 24.1992 21.8387L20.2469 21.2222ZM18.5242 21.2222H14.5242C14.5242 23.4314 16.3151 25.2222 18.5242 25.2222V21.2222ZM18.5242 20H22.5242C22.5242 18.6756 21.8687 17.4371 20.7735 16.6923C19.6783 15.9476 18.2855 15.7932 17.0539 16.28L18.5242 20ZM7.27966 24.4444L5.80933 20.7245C5.24981 20.9456 4.74738 21.2902 4.33946 21.7324L7.27966 24.4444ZM4 28L1.0598 25.2879C-0.353267 26.8199 -0.353267 29.1801 1.0598 30.7121L4 28ZM7.27966 31.5556L4.33946 34.2676C4.74738 34.7098 5.24981 35.0544 5.80933 35.2755L7.27966 31.5556ZM18.5242 36L17.0539 39.72C18.2855 40.2068 19.6783 40.0524 20.7735 39.3077C21.8687 38.5629 22.5242 37.3244 22.5242 36H18.5242ZM18.5242 34.7778V30.7778C16.3151 30.7778 14.5242 32.5686 14.5242 34.7778H18.5242ZM20.2469 34.7778L24.1992 34.1613C23.8954 32.2137 22.2181 30.7778 20.2469 30.7778V34.7778ZM22.9332 52L18.981 52.6165C19.2848 54.564 20.9621 56 22.9332 56V52ZM38.9271 52V56C40.7175 56 42.2898 54.8103 42.7765 53.0874L38.9271 52ZM41.0133 44.6154L44.8626 45.7028C45.2033 44.497 44.9592 43.2011 44.2031 42.2019C43.447 41.2026 42.2664 40.6154 41.0133 40.6154V44.6154ZM25.2512 44.6154L21.3135 45.3187C21.6542 47.2263 23.3134 48.6154 25.2512 48.6154V44.6154ZM23.6693 35.7583L27.1749 33.832C26.2315 32.1153 24.1838 31.3343 22.3368 31.9868C20.4899 32.6393 19.3872 34.5333 19.7316 36.4616L23.6693 35.7583ZM60.7866 40.5556L61.7662 44.4337C63.723 43.9394 65.0051 42.0648 64.756 40.062C64.507 38.0591 62.8049 36.5556 60.7866 36.5556V40.5556ZM44.7146 44.6154L43.735 40.7372C42.2875 41.1028 41.1642 42.2441 40.8215 43.6971L44.7146 44.6154ZM42.9728 52L39.0797 51.0817C38.7259 52.5816 39.2651 54.1512 40.466 55.117C41.6668 56.0828 43.3156 56.2728 44.7046 55.6057L42.9728 52ZM65.1808 41.3333L66.9126 44.939C68.6176 44.1201 69.5159 42.2188 69.0659 40.3817L65.1808 41.3333ZM64.9903 40.5556V36.5556C63.7619 36.5556 62.6016 37.12 61.8433 38.0864C61.0851 39.0528 60.8129 40.3141 61.1051 41.5072L64.9903 40.5556ZM680.01 40.5556L683.895 41.5071C684.187 40.314 683.915 39.0528 683.157 38.0864C682.398 37.12 681.238 36.5556 680.01 36.5556V40.5556ZM679.819 41.3333L675.934 40.3818C675.484 42.2189 676.382 44.1201 678.087 44.939L679.819 41.3333ZM702.027 52L700.295 55.6057C701.684 56.2728 703.333 56.0828 704.534 55.117C705.735 54.1512 706.274 52.5816 705.92 51.0817L702.027 52ZM700.285 44.6154L704.179 43.6971C703.836 42.2441 702.712 41.1028 701.265 40.7372L700.285 44.6154ZM684.213 40.5556V36.5556C682.195 36.5556 680.493 38.0591 680.244 40.062C679.995 42.0648 681.277 43.9394 683.234 44.4337L684.213 40.5556ZM720.833 38.5458L724.771 39.2491C725.115 37.3228 724.014 35.4303 722.17 34.7761C720.326 34.1218 718.279 34.8978 717.332 36.6102L720.833 38.5458ZM719.749 44.6154V48.6154C721.687 48.6154 723.346 47.2263 723.686 45.3187L719.749 44.6154ZM703.987 44.6154V40.6154C702.734 40.6154 701.553 41.2026 700.797 42.2019C700.041 43.2011 699.797 44.497 700.137 45.7028L703.987 44.6154ZM706.073 52L702.224 53.0875C702.71 54.8103 704.283 56 706.073 56V52ZM722.067 52V56C724.038 56 725.715 54.564 726.019 52.6165L722.067 52ZM724.753 34.7778V30.7778C722.782 30.7778 721.105 32.2137 720.801 34.1613L724.753 34.7778ZM726.476 34.7778H730.476C730.476 32.5686 728.685 30.7778 726.476 30.7778V34.7778ZM726.476 36H722.476C722.476 37.3244 723.131 38.5629 724.226 39.3077C725.322 40.0524 726.714 40.2068 727.946 39.72L726.476 36ZM737.72 31.5556L739.191 35.2755C739.75 35.0544 740.253 34.7098 740.661 34.2676L737.72 31.5556ZM741 28L743.94 30.7121C745.353 29.1801 745.353 26.8199 743.94 25.2879L741 28ZM737.72 24.4444L740.661 21.7324C740.221 21.2561 739.673 20.8937 739.062 20.6763L737.72 24.4444ZM726.476 20.4394L727.818 16.6713C726.593 16.235 725.233 16.4213 724.17 17.1707C723.108 17.9201 722.476 19.1392 722.476 20.4394H726.476ZM726.476 21.2222V25.2222C728.685 25.2222 730.476 23.4314 730.476 21.2222H726.476ZM724.753 21.2222L720.801 21.8387C721.105 23.7863 722.782 25.2222 724.753 25.2222V21.2222ZM722.067 4L726.019 3.38354C725.715 1.43596 724.038 0 722.067 0V4ZM706.073 4V0C704.297 0 702.734 1.17032 702.235 2.87398L706.073 4ZM703.987 11.1111L700.148 9.98509C699.794 11.1943 700.03 12.4999 700.785 13.5086C701.54 14.5173 702.727 15.1111 703.987 15.1111V11.1111ZM719.749 11.1111L723.69 10.4253C723.356 8.50956 721.693 7.11111 719.749 7.11111V11.1111ZM720.862 17.5079L717.331 19.3882C718.255 21.1229 720.303 21.9294 722.161 21.291C724.02 20.6525 725.14 18.7583 724.803 16.8221L720.862 17.5079ZM684.01 15.4444L682.981 11.5791C681.04 12.0959 679.784 13.9719 680.044 15.9634C680.305 17.955 682.002 19.4444 684.01 19.4444V15.4444ZM700.285 11.1111L701.315 14.9764C702.728 14.6002 703.823 13.483 704.171 12.0627L700.285 11.1111ZM702.027 4L705.912 4.95161C706.28 3.44885 705.749 1.86858 704.547 0.893777C703.346 -0.0810227 701.69 -0.275522 700.295 0.394342L702.027 4ZM679.819 14.6667L678.087 11.061C676.382 11.8799 675.484 13.7811 675.934 15.6182L679.819 14.6667ZM680.01 15.4444V19.4444C681.238 19.4444 682.398 18.88 683.157 17.9136C683.915 16.9472 684.187 15.686 683.895 14.4929L680.01 15.4444ZM64.9903 15.4444L61.1051 14.4928C60.8129 15.6859 61.0851 16.9472 61.8433 17.9136C62.6016 18.88 63.7619 19.4444 64.9903 19.4444V15.4444ZM65.1808 14.6667L69.0659 15.6183C69.5159 13.7812 68.6176 11.8799 66.9126 11.061L65.1808 14.6667ZM42.9728 4L44.7046 0.394341C43.31 -0.275524 41.6541 -0.0810213 40.4526 0.893785C39.2511 1.86859 38.7196 3.44887 39.0877 4.95163L42.9728 4ZM44.7146 11.1111L40.8295 12.0627C41.1773 13.483 42.2725 14.6002 43.6854 14.9764L44.7146 11.1111ZM60.9896 15.4444V19.4444C62.9981 19.4444 64.6952 17.955 64.9558 15.9634C65.2164 13.9719 63.9597 12.0959 62.0187 11.5791L60.9896 15.4444ZM23.659 20.2601L19.7183 19.5743C19.3845 21.4925 20.4803 23.3724 22.3139 24.0271C24.1476 24.6818 26.1863 23.9212 27.1429 22.2254L23.659 20.2601ZM25.2512 11.1111V7.11111C23.3067 7.11111 21.6438 8.50956 21.3104 10.4253L25.2512 11.1111ZM41.0133 11.1111V15.1111C42.2734 15.1111 43.4599 14.5173 44.2152 13.5086C44.9705 12.4999 45.2063 11.1943 44.8515 9.9851L41.0133 11.1111ZM726.476 23.2222H730.476C730.476 21.0131 728.685 19.2222 726.476 19.2222V23.2222ZM18.5242 23.2222V19.2222C16.3151 19.2222 14.5242 21.0131 14.5242 23.2222H18.5242ZM18.5242 32.7778H14.5242C14.5242 34.9869 16.3151 36.7778 18.5242 36.7778V32.7778ZM726.476 32.7778V36.7778C728.685 36.7778 730.476 34.9869 730.476 32.7778H726.476ZM22.9332 8H38.9271V0H22.9332V8ZM24.1992 21.8387L26.8855 4.61646L18.981 3.38354L16.2947 20.6058L24.1992 21.8387ZM18.5242 25.2222H20.2469V17.2222H18.5242V25.2222ZM14.5242 20V21.2222H22.5242V20H14.5242ZM8.74999 28.1644L19.9945 23.72L17.0539 16.28L5.80933 20.7245L8.74999 28.1644ZM6.9402 30.7121L10.2199 27.1565L4.33946 21.7324L1.0598 25.2879L6.9402 30.7121ZM10.2199 28.8435L6.9402 25.2879L1.0598 30.7121L4.33946 34.2676L10.2199 28.8435ZM19.9945 32.28L8.74999 27.8356L5.80933 35.2755L17.0539 39.72L19.9945 32.28ZM14.5242 34.7778V36H22.5242V34.7778H14.5242ZM20.2469 30.7778H18.5242V38.7778H20.2469V30.7778ZM26.8855 51.3835L24.1992 34.1613L16.2947 35.3942L18.981 52.6165L26.8855 51.3835ZM38.9271 48H22.9332V56H38.9271V48ZM37.1639 43.5279L35.0778 50.9126L42.7765 53.0874L44.8626 45.7028L37.1639 43.5279ZM25.2512 48.6154H41.0133V40.6154H25.2512V48.6154ZM19.7316 36.4616L21.3135 45.3187L29.1889 43.9121L27.607 35.055L19.7316 36.4616ZM27.9016 36.6667C27.9016 35.6471 27.6391 34.6768 27.1749 33.832L20.1637 37.6847C19.9957 37.3789 19.9016 37.0278 19.9016 36.6667H27.9016ZM27.7906 36.5556C27.7985 36.5556 27.8162 36.558 27.835 36.5659C27.8512 36.5728 27.8619 36.5809 27.8691 36.5881C27.8762 36.5952 27.8844 36.606 27.8912 36.6222C27.8992 36.641 27.9016 36.6587 27.9016 36.6667H19.9016C19.9016 41.0237 23.4338 44.5556 27.7906 44.5556V36.5556ZM60.7866 36.5556H27.7906V44.5556H60.7866V36.5556ZM45.6943 48.4936L61.7662 44.4337L59.8069 36.6774L43.735 40.7372L45.6943 48.4936ZM46.866 52.9183L48.6078 45.5337L40.8215 43.6971L39.0797 51.0817L46.866 52.9183ZM63.449 37.7277L41.241 48.3943L44.7046 55.6057L66.9126 44.939L63.449 37.7277ZM61.1051 41.5072L61.2956 42.285L69.0659 40.3817L68.8754 39.6039L61.1051 41.5072ZM680.01 36.5556H64.9903V44.5556H680.01V36.5556ZM683.704 42.2849L683.895 41.5071L676.125 39.604L675.934 40.3818L683.704 42.2849ZM703.759 48.3943L681.551 37.7277L678.087 44.939L700.295 55.6057L703.759 48.3943ZM696.392 45.5336L698.134 52.9183L705.92 51.0817L704.179 43.6971L696.392 45.5336ZM683.234 44.4337L699.306 48.4936L701.265 40.7372L685.193 36.6774L683.234 44.4337ZM717.427 36.5556H684.213V44.5556H717.427V36.5556ZM717.332 36.6102C717.341 36.5939 717.352 36.5827 717.367 36.5739C717.376 36.5687 717.387 36.5637 717.399 36.5601C717.413 36.5563 717.423 36.5556 717.427 36.5556V44.5556C720.407 44.5556 722.995 42.902 724.333 40.4814L717.332 36.6102ZM716.895 37.8426L715.811 43.9121L723.686 45.3187L724.771 39.2491L716.895 37.8426ZM719.749 40.6154H703.987V48.6154H719.749V40.6154ZM700.137 45.7028L702.224 53.0875L709.922 50.9125L707.836 43.5279L700.137 45.7028ZM706.073 56H722.067V48H706.073V56ZM726.019 52.6165L728.705 35.3942L720.801 34.1613L718.115 51.3835L726.019 52.6165ZM726.476 30.7778H724.753V38.7778H726.476V30.7778ZM730.476 36V34.7778H722.476V36H730.476ZM736.25 27.8356L725.005 32.28L727.946 39.72L739.191 35.2755L736.25 27.8356ZM738.06 25.2879L734.78 28.8435L740.661 34.2676L743.94 30.7121L738.06 25.2879ZM734.78 27.1565L738.06 30.7121L743.94 25.2879L740.661 21.7324L734.78 27.1565ZM725.134 24.2075L736.378 28.2126L739.062 20.6763L727.818 16.6713L725.134 24.2075ZM730.476 21.2222V20.4394H722.476V21.2222H730.476ZM724.753 25.2222H726.476V17.2222H724.753V25.2222ZM718.115 4.61646L720.801 21.8387L728.705 20.6058L726.019 3.38354L718.115 4.61646ZM706.073 8H722.067V0H706.073V8ZM707.825 12.2371L709.911 5.12602L702.235 2.87398L700.148 9.98509L707.825 12.2371ZM719.749 7.11111H703.987V15.1111H719.749V7.11111ZM724.803 16.8221L723.69 10.4253L715.808 11.7969L716.921 18.1937L724.803 16.8221ZM717.427 19.4444C717.423 19.4444 717.413 19.4437 717.399 19.4397C717.386 19.436 717.375 19.4309 717.366 19.4257C717.352 19.4168 717.341 19.4054 717.331 19.3882L724.393 15.6276C723.071 13.1473 720.451 11.4444 717.427 11.4444V19.4444ZM684.01 19.4444H717.427V11.4444H684.01V19.4444ZM685.04 19.3098L701.315 14.9764L699.256 7.24578L682.981 11.5791L685.04 19.3098ZM704.171 12.0627L705.912 4.95161L698.142 3.04839L696.4 10.1595L704.171 12.0627ZM700.295 0.394342L678.087 11.061L681.551 18.2723L703.759 7.60566L700.295 0.394342ZM675.934 15.6182L676.125 16.396L683.895 14.4929L683.704 13.7151L675.934 15.6182ZM64.9903 19.4444H680.01V11.4444H64.9903V19.4444ZM61.2956 13.715L61.1051 14.4928L68.8754 16.3961L69.0659 15.6183L61.2956 13.715ZM41.241 7.60566L63.449 18.2723L66.9126 11.061L44.7046 0.394341L41.241 7.60566ZM48.5998 10.1595L46.858 3.04837L39.0877 4.95163L40.8295 12.0627L48.5998 10.1595ZM62.0187 11.5791L45.7438 7.24578L43.6854 14.9764L59.9604 19.3098L62.0187 11.5791ZM27.7905 19.4444H60.9896V11.4444H27.7905V19.4444ZM27.9016 19.3333C27.9016 19.3413 27.8992 19.359 27.8913 19.3778C27.8844 19.394 27.8762 19.4048 27.8691 19.4119C27.8619 19.419 27.8512 19.4272 27.835 19.4341C27.8161 19.442 27.7985 19.4444 27.7905 19.4444V11.4444C23.4336 11.4444 19.9016 14.9764 19.9016 19.3333H27.9016ZM27.1429 22.2254C27.6269 21.3675 27.9016 20.3765 27.9016 19.3333H19.9016C19.9016 18.9637 20.0001 18.605 20.1752 18.2947L27.1429 22.2254ZM21.3104 10.4253L19.7183 19.5743L27.5998 20.9459L29.192 11.7969L21.3104 10.4253ZM41.0133 7.11111H25.2512V15.1111H41.0133V7.11111ZM35.0889 5.12601L37.175 12.2371L44.8515 9.9851L42.7654 2.87399L35.0889 5.12601ZM726.476 19.2222H723.205V27.2222H726.476V19.2222ZM723.205 19.2222C723.213 19.2222 723.231 19.2246 723.25 19.2326C723.266 19.2394 723.276 19.2476 723.284 19.2547C723.291 19.2619 723.299 19.2726 723.306 19.2888C723.314 19.3077 723.316 19.3254 723.316 19.3333H715.316C715.316 23.6903 718.848 27.2222 723.205 27.2222V19.2222ZM723.316 19.3333C723.316 16.081 720.68 13.4444 717.427 13.4444V21.4444C716.261 21.4444 715.316 20.4993 715.316 19.3333H723.316ZM717.427 13.4444H27.7905V21.4444H717.427V13.4444ZM27.7905 13.4444C24.5382 13.4444 21.9016 16.081 21.9016 19.3333H29.9016C29.9016 20.4993 28.9564 21.4444 27.7905 21.4444V13.4444ZM21.9016 19.3333C21.9016 19.3254 21.904 19.3077 21.912 19.2889C21.9188 19.2727 21.927 19.2619 21.9342 19.2548C21.9413 19.2476 21.9521 19.2394 21.9683 19.2326C21.9871 19.2246 22.0048 19.2222 22.0127 19.2222V27.2222C26.3697 27.2222 29.9016 23.6902 29.9016 19.3333H21.9016ZM22.0127 19.2222H18.5242V27.2222H22.0127V19.2222ZM14.5242 23.2222V32.7778H22.5242V23.2222H14.5242ZM18.5242 36.7778H22.0127V28.7778H18.5242V36.7778ZM22.0127 36.7778C22.0048 36.7778 21.9871 36.7754 21.9683 36.7674C21.9521 36.7606 21.9413 36.7524 21.9342 36.7452C21.927 36.7381 21.9188 36.7273 21.912 36.7111C21.904 36.6923 21.9016 36.6746 21.9016 36.6667H29.9016C29.9016 32.3098 26.3697 28.7778 22.0127 28.7778V36.7778ZM21.9016 36.6667C21.9016 39.9191 24.5383 42.5556 27.7906 42.5556V34.5556C28.9564 34.5556 29.9016 35.5006 29.9016 36.6667H21.9016ZM27.7906 42.5556H717.427V34.5556H27.7906V42.5556ZM717.427 42.5556C720.68 42.5556 723.316 39.919 723.316 36.6667H715.316C715.316 35.5008 716.261 34.5556 717.427 34.5556V42.5556ZM723.316 36.6667C723.316 36.6746 723.314 36.6923 723.306 36.7112C723.299 36.7274 723.291 36.7381 723.284 36.7453C723.276 36.7524 723.266 36.7606 723.25 36.7674C723.231 36.7754 723.213 36.7778 723.205 36.7778V28.7778C718.848 28.7778 715.316 32.3097 715.316 36.6667H723.316ZM723.205 36.7778H726.476V28.7778H723.205V36.7778ZM730.476 32.7778V23.2222H722.476V32.7778H730.476Z" fill="url(#paint1_linear_262_23148)" mask="url(#path-1-outside-1_262_23148)"/>
      <defs>
      <linearGradient id="paint0_linear_262_23148" x1="372.5" y1="4" x2="372.5" y2="73.3333" gradientUnits="userSpaceOnUse">
      <stop stop-color="#A7E5FF"/>
      <stop offset="1" stop-color="#999999" stop-opacity="0.72"/>
      </linearGradient>
      <linearGradient id="paint1_linear_262_23148" x1="372.5" y1="4" x2="372.5" y2="52" gradientUnits="userSpaceOnUse">
      <stop offset="1" stop-color="#210B0B"/>
      </linearGradient>
      </defs>
      </svg>